<?xml version="1.0" encoding="utf-8"?>
<!DOCTYPE svg PUBLIC "-//W3C//DTD SVG 1.0//EN" "http://www.w3.org/TR/2001/REC-SVG-20010904/DTD/svg10.dtd">
<svg version="1.0" xmlns="http://www.w3.org/2000/svg" width="500px" height="500px" viewBox="0 0 500 500" preserveAspectRatio="xMidYMid meet">
 <g fill="#ffffff">
  <path d="M0 250 l0 -250 250 0 250 0 0 250 0 250 -250 0 -250 0 0 -250z m213.5 109 c0 -16 -0.4 -25 -1 -25 -0.6 0 -1 9 -1 25 0 16 0.4 25 1 25 0.6 0 1 -9 1 -25z m94 0 c0 -13.8 -0.3 -25 -0.7 -25 -0.5 0 -0.8 11.3 -0.8 25 0 13.8 0.3 25 0.8 25 0.4 0 0.7 -11.3 0.7 -25z m54.5 13 c0 -6.6 -0.3 -12 -0.7 -12 -0.5 0 -0.8 5.4 -0.8 12 0 6.6 0.3 12 0.8 12 0.4 0 0.7 -5.4 0.7 -12z m-191 6.5 c0 -1.8 -0.5 -2.5 -2 -2.5 -2 0 -2 0.1 -0.4 2.5 0.9 1.4 1.8 2.5 2 2.5 0.2 0 0.4 -1.1 0.4 -2.5z m-35.1 -40.2 c-1.3 -1.6 -2.5 -3 -2.6 -3.2 -0.2 -0.2 -0.3 1 -0.3 2.7 0 2.8 0.3 3.2 2.7 3.2 l2.6 0 -2.4 -2.7z m127.3 -62.5 c10.9 -7.3 30.8 -26.6 39 -37.8 26.2 -36 41.5 -82.7 46.3 -141.8 l0.7 -8.2 -96.2 0 -96.2 0 0.7 8.3 c2.7 34.2 9.9 67.1 20.1 93 6.6 16.6 9.7 22.9 17 34.8 12.7 20.4 31.3 40.3 48.6 51.9 4.9 3.3 9.3 6 9.8 6 0.5 0 5.1 -2.8 10.2 -6.2z m-121.5 -199.5 c-0.3 -1 -0.5 -0.2 -0.5 1.7 0 1.9 0.2 2.7 0.5 1.8 0.2 -1 0.2 -2.6 0 -3.5z"/>
  <path d="M243.2 236 c-13.4 -1.7 -30.2 -10.8 -37.9 -20.7 -9.7 -12.3 -13.3 -22.6 -13.3 -38.2 0 -13.1 1.9 -21.4 7 -30.9 5.9 -10.9 8.9 -14.2 12.8 -14.2 2.9 0 3.2 0.3 3.2 3.1 0 1.7 -1.4 6 -3.1 9.5 -5.3 10.8 -4.8 25.9 1.3 37.7 2.1 4.1 2.1 4.1 2.9 1.7 0.8 -3 2.9 -7.9 18.4 -43.5 6.5 -14.8 12.6 -29.1 13.8 -31.7 1.8 -4.3 2.3 -4.8 5.3 -4.8 3 0 3.5 0.5 5.9 5.8 3.2 6.8 4.2 12.9 2.7 17.1 -1.1 3.1 -1.1 3.1 2.6 3.1 l3.7 0 10.9 25.6 c6 14.1 11.2 27.2 11.6 29.2 l0.6 3.7 2.2 -4.2 c5.6 -10.7 6.6 -28 2.3 -39.4 -1.2 -3 -2.1 -6.7 -2.1 -8.2 0 -2.6 0.2 -2.8 3.7 -2.5 3.2 0.3 4.2 1 7.5 5.6 2 3 5.2 8.8 7 13 3.2 7.6 3.3 7.9 3.3 22.7 0 13.3 -0.3 15.7 -2.4 21.7 -3.3 9 -10.5 19.3 -17.7 25.1 -6.2 5 -17.2 10.8 -23.9 12.6 -6 1.5 -20.1 2.1 -28.3 1.1z m19.3 -27.5 c8.9 -2.4 14.2 -5.3 21.4 -12 l6.4 -6 -9.4 -0.5 -9.4 -0.5 -3.4 -8.2 -3.4 -8.3 -9 0 -8.9 0 0.4 -5.6 0.5 -5.7 -2.7 5.9 c-1.4 3.3 -4.2 9.6 -6 14.2 l-3.4 8.2 -8.3 0 c-4.6 0 -8.3 0.4 -8.3 0.9 0 1.9 11.8 11.5 17 14 5.8 2.6 13.8 4.9 18 5 1.4 0.1 5.3 -0.6 8.5 -1.4z"/>
 </g>
 <g fill="#e30310">
  <path d="M244 296.9 c-41.9 -24.9 -75.7 -72.2 -91.8 -128.6 -4.8 -16.5 -8.6 -35.5 -10.6 -51.8 -2.2 -17.7 -4 -42.1 -3.3 -43.9 0.6 -1.5 11.2 -1.6 114.6 -1.6 65.6 0 114.2 0.4 114.5 0.9 0.8 1.2 -1.1 30 -3 45.1 -9.7 79 -45.5 143.6 -98.4 177.4 -11.1 7.1 -11.9 7.6 -12.7 7.6 -0.4 0 -4.6 -2.3 -9.3 -5.1z m17.5 -6.4 c40.6 -23.1 74.2 -72.4 89.1 -130.1 5.9 -23.2 10.4 -55.8 10.4 -75.4 l0 -7.7 -3.1 -0.7 c-4.2 -0.8 -204.3 -0.8 -209.3 0.1 l-3.9 0.6 0.6 14.1 c3.9 85.6 37.2 156.8 90.5 193.7 6.2 4.3 16 9.9 17.2 9.9 0.3 0 4.1 -2 8.5 -4.5z"/>
  <path d="M248.5 284.1 c-11.6 -5.4 -32.8 -24.1 -44.7 -39.4 -13 -16.9 -20.4 -30.1 -29.2 -52.4 -10.7 -27 -18.3 -63 -20.2 -96 l-0.7 -11.3 99.3 0 99.3 0 -0.7 11.3 c-3.4 57.3 -20 108.8 -46.5 144.7 -7.2 9.7 -20.6 23.6 -30.3 31.4 -7.7 6.2 -19.4 13.6 -21.3 13.6 -0.5 0 -2.8 -0.9 -5 -1.9z m20 -52.3 c6.6 -1.6 17.6 -7.4 23.9 -12.5 7.1 -5.7 14.3 -15.9 17.5 -24.6 2.8 -7.7 3.8 -22 2.2 -29.7 -1.5 -6.8 -7.9 -20.3 -12 -25 l-3 -3.5 2.1 5.5 c4.5 11.9 3.3 34.2 -2.3 45.3 -2.9 5.6 -15.2 17.7 -20.9 20.4 -19.1 9.3 -40.7 5.8 -55.4 -8.9 -11.7 -11.8 -16.2 -23.7 -15.4 -41.1 0.3 -7.6 0.9 -10.3 3.3 -15.2 4.1 -8.4 4.1 -8.4 0.7 -4.5 -4.6 5.3 -11 17.9 -12.7 25.1 -6.4 27.5 8 54.6 35.1 65.9 11.1 4.6 25.3 5.7 36.9 2.8z m-32.3 -53.5 c2 -4.9 8.2 -19.5 13.8 -32.6 6.7 -15.9 9.9 -24.6 9.4 -25.9 -0.3 -1.1 -1.8 -4.5 -3.2 -7.6 l-2.6 -5.7 -2.4 5.5 c-2.2 5.1 -5.3 12.2 -25.1 57.9 -3.9 9 -7.1 16.6 -7.1 16.7 0 0.2 3.1 0.4 6.8 0.4 l6.8 0 3.6 -8.7z m51.4 7 c-2.2 -6.1 -22.2 -52.3 -22.7 -52.3 -0.6 0 -14.9 34.4 -14.9 36 0 0.6 3.5 1 8.9 1 l8.9 0 2.2 5.8 c4.7 11.6 4.2 11.2 11.6 11.2 5.9 0 6.5 -0.2 6 -1.7z"/>
 </g>
 <g fill="#000000">
  <path d="M61 385.6 c0 -0.8 1.5 -2 3.4 -2.6 3.9 -1.3 3.9 -1.1 16.7 -31.4 6.3 -14.8 9 -20.1 10.7 -20.9 1.2 -0.6 2.5 -0.8 2.8 -0.5 0.3 0.3 4.6 11.8 9.5 25.4 5 13.7 9.5 25.4 10 26 0.5 0.7 2.3 1.4 3.9 1.8 1.8 0.3 3 1.2 3 2.1 0 1.2 -1.8 1.5 -11 1.5 -9.1 0 -11 -0.3 -11 -1.5 0 -0.8 0.8 -1.5 1.8 -1.5 1 0 2.6 -0.6 3.5 -1.2 1.6 -1.2 1.6 -1.8 -0.9 -9 l-2.6 -7.8 -10.8 0 -10.7 0 -2.8 7.5 c-1.4 4.1 -2.4 7.8 -2.1 8.4 0.4 0.5 2 1.2 3.7 1.6 6.1 1.4 2.4 3 -7.4 3.3 -8 0.2 -9.7 0 -9.7 -1.2z m38 -23.8 c-0.6 -3.3 -8 -22.2 -8.6 -21.8 -0.5 0.3 -2.6 4.8 -4.7 10 -2.1 5.2 -4.1 10.1 -4.4 10.8 -0.4 0.9 1.7 1.2 8.6 1.2 5 0 9.1 -0.1 9.1 -0.2z"/>
  <path d="M122 385.5 c0 -0.8 1.2 -1.8 2.8 -2.1 5.2 -1.3 5.2 -1.1 5.2 -24.4 0 -23.2 -0.1 -23.5 -5.2 -25.3 -1 -0.4 -1.8 -1.3 -1.8 -2.2 0 -1.2 1.3 -1.5 5.9 -1.5 l5.8 0 16.8 21.5 c9.2 11.8 17.1 21.5 17.6 21.5 1.1 0 1.2 -35.1 0 -36.8 -0.4 -0.7 -2.1 -1.6 -3.7 -2.1 -1.6 -0.4 -3 -1.4 -3.2 -2.3 -0.3 -1.4 1.1 -1.6 9.5 -1.4 7.8 0.1 9.8 0.4 9.8 1.5 0 0.8 -1.3 1.8 -2.9 2.2 -1.6 0.5 -3.3 1.4 -3.7 2.1 -0.5 0.7 -0.9 12.5 -0.9 26.1 l0 24.8 -2.2 -0.3 c-1.5 -0.2 -7.7 -7.1 -19.2 -21.5 -11.3 -14.2 -17.3 -20.9 -17.8 -20 -0.4 0.6 -0.8 8.4 -0.8 17.2 0 17.4 0.6 19.7 5.5 20.9 1.4 0.4 2.5 1.3 2.5 2.1 0 1.2 -1.8 1.5 -10 1.5 -8.2 0 -10 -0.3 -10 -1.5z"/>
  <path d="M200 385.6 c0 -0.8 1.5 -1.7 3.5 -2 1.9 -0.4 3.9 -1.5 4.5 -2.6 1.3 -2.4 1.3 -41 0 -44.4 -0.9 -2.4 -1.4 -2.6 -6.8 -2.6 -6.6 0 -9.3 1.5 -11.2 6 -1.5 3.6 -4.5 4.2 -3.7 0.8 0.4 -1.3 0.9 -4.1 1.3 -6.4 l0.6 -4 23.9 0 23.9 0 0 2.6 c0 1.4 0.3 4.2 0.6 6.3 0.5 3 0.4 3.7 -1 3.7 -0.9 0 -1.6 -0.7 -1.6 -1.6 0 -0.8 -1.3 -2.9 -2.9 -4.5 -2.5 -2.4 -3.7 -2.9 -8 -2.9 -4.6 0 -5.3 0.3 -6.1 2.6 -1.3 3.4 -1.3 42 0 44.4 0.6 1.1 2.6 2.2 4.5 2.6 2 0.3 3.5 1.2 3.5 2 0 1.1 -2.5 1.4 -12.5 1.4 -10 0 -12.5 -0.3 -12.5 -1.4z"/>
  <path d="M234 385.6 c0 -0.8 1.3 -1.9 2.9 -2.4 1.6 -0.6 3.6 -2.1 4.4 -3.4 0.8 -1.3 5.9 -12.6 11.3 -25.1 7.5 -17.8 10.2 -23.1 12.1 -24 1.2 -0.5 2.5 -0.8 2.7 -0.6 0.2 0.2 4.3 11.2 9.1 24.4 4.7 13.2 9.2 25 10 26.2 0.8 1.2 2.8 2.4 4.5 2.8 1.7 0.4 2.9 1.2 2.7 1.8 -0.5 1.5 -20.6 2.2 -22 0.8 -0.7 -0.7 -0.4 -1.2 0.9 -1.6 1 -0.4 2.9 -1.1 4.1 -1.5 l2.2 -0.9 -2.7 -8 -2.6 -8.1 -10.7 0 -10.7 0 -2.6 6.8 c-3.3 8.7 -3.3 9.8 0.4 10.6 1.8 0.3 3 1.2 3 2.1 0 1.2 -1.7 1.5 -9.5 1.5 -7.5 0 -9.5 -0.3 -9.5 -1.4z m37 -24.8 c0 -2.6 -7.4 -21.8 -8.1 -21.1 -0.7 0.8 -8.9 20.8 -8.9 21.8 0 0.3 3.8 0.5 8.5 0.5 5.9 0 8.5 -0.4 8.5 -1.2z"/>
  <path d="M295.7 386.3 c-1.4 -1.3 -0.6 -2.1 2.7 -2.7 1.9 -0.4 3.7 -1.4 4 -2.2 0.3 -0.9 0.6 -11.4 0.6 -23.4 0 -23.3 0 -23.2 -5.3 -24.5 -1.5 -0.4 -2.6 -1.2 -2.4 -1.9 0.6 -1.7 22.7 -1.7 22.7 0 0 0.8 -1.5 1.7 -3.2 2.2 -4.3 1.1 -4.7 3.3 -4.7 27.5 -0.1 17.8 0 18.8 2 20.8 1.9 1.9 2.9 2.1 8.5 1.6 7.6 -0.7 10.8 -2.6 13.1 -7.8 0.9 -2.1 2.3 -3.9 3 -3.9 1.6 0 1.6 0.6 0.2 8.7 l-1.1 6.3 -19.7 0 c-10.9 0 -20.1 -0.3 -20.4 -0.7z"/>
  <path d="M349 385.6 c0 -0.8 1.6 -1.8 3.7 -2.3 3.1 -0.7 3.8 -1.4 4.6 -4.3 0.5 -1.9 0.7 -6.7 0.5 -10.7 -0.5 -6.6 -1 -8 -6.3 -17 -7.5 -12.7 -10.2 -16.2 -13.1 -17.3 -1.3 -0.5 -2.4 -1.5 -2.4 -2.2 0 -1 2.4 -1.4 9.5 -1.4 7.5 -0.1 9.5 0.2 9.5 1.3 0 0.7 -1.2 1.8 -2.6 2.3 l-2.6 1 2.5 4.3 c1.3 2.3 4.1 7.2 6.2 10.9 2.1 3.7 4.2 6.5 4.6 6.2 1.2 -0.7 10.9 -19.2 10.9 -20.7 0 -0.8 -0.9 -1.7 -2 -2 -1.1 -0.3 -2 -1.2 -2 -2 0 -1.3 1.4 -1.5 7.7 -1.3 8.5 0.2 10.5 1.7 4.9 3.6 -3 0.9 -4.3 2.5 -8.7 10.3 -9.4 16.6 -8.9 15.2 -8.9 26.3 0 11.1 0.3 11.7 5.8 12.9 1.8 0.4 3.1 1.2 2.9 1.8 -0.2 0.8 -4.4 1.3 -12.5 1.5 -10.1 0.2 -12.2 0 -12.2 -1.2z"/>
  <path d="M381 385.6 c0 -0.8 1 -1.8 2.3 -2.2 1.2 -0.3 3 -1.3 3.9 -2.1 0.9 -0.8 6.3 -12.3 11.9 -25.5 8 -18.6 10.8 -24.2 12.6 -25.1 1.3 -0.5 2.5 -0.8 2.8 -0.6 0.2 0.3 4.3 11.2 9 24.4 4.8 13.2 9.3 25 10 26.2 0.8 1.2 2.8 2.4 4.5 2.8 1.7 0.4 2.9 1.2 2.7 1.8 -0.2 0.8 -4.1 1.3 -11 1.5 -8.6 0.2 -10.7 0 -10.7 -1.1 0 -0.8 1.5 -1.8 3.3 -2.3 1.7 -0.6 3.2 -1.4 3.2 -1.9 0 -0.6 -1.1 -4.3 -2.5 -8.2 l-2.4 -7.3 -10.6 0 -10.7 0 -2.6 6.8 c-1.5 3.7 -2.7 7.3 -2.7 8 0 0.7 1.4 1.8 3 2.3 1.7 0.6 3 1.7 3 2.5 0 1.1 -2 1.4 -9.5 1.4 -7.6 0 -9.5 -0.3 -9.5 -1.4z m33.9 -35.3 c-2.3 -6.5 -4.2 -11.9 -4.3 -12.1 -0.2 -0.1 -2.2 4.6 -4.5 10.5 -2.4 6 -4.5 11.4 -4.8 12.1 -0.4 0.9 1.7 1.2 8.6 1.2 l9 0 -4 -11.7z"/>
 </g>
</svg>